# xmcd
#
# Track frame offsets:
#	150
#	53819
#	87197
#	106177
#	183505
#
# Disc length: 3188 seconds
#
# Revision: 0
# Processed by: cddbd v1.5.2PL0 Copyright (c) Steve Scherf et al.
# Submitted via: audiograbber 1.83.01
#
DISCID=360c7205
DTITLE=Grateful Dead - 94-07-19 Deer Creek Music Centre, Noblesville IN
DYEAR=1900
DGENRE=
TTITLE0=Foolish Heart
TTITLE1=Saint Of Circumstance
TTITLE2=I Want To Tell You
TTITLE3=Playing In The Band
TTITLE4=Drums
EXTD=
EXTT0=
EXTT1=
EXTT2=
EXTT3=
EXTT4=
PLAYORDER=
